<?xml version="1.0" encoding="UTF-8" standalone="no"?>
<svg xmlns:svg="http://www.w3.org/2000/svg" xmlns="http://www.w3.org/2000/svg" width="238" height="23" viewBox="0 0 238 23" version="1.1">
  <g transform="translate(658.086,359.70648)">
    <g transform="matrix(0.26458333,0,0,0.26458333,-658.086,-494.86622)">
      <path d="m 0,521 21.5,-1.7 c 21.5,-1.6 64.5,-5 107.3,-1.5 42.9,3.5 85.5,13.9 128.4,17.2 42.8,3.3 85.8,-0.3 128.6,-4.2 42.9,-3.8 85.5,-7.8 128.4,-9.6 42.8,-1.9 85.8,-1.5 128.6,-4.2 42.9,-2.7 85.5,-8.3 128.4,-5.3 42.8,3 85.8,14.6 107.3,20.5 L 900,538 v 63 h -21.5 c -21.5,0 -64.5,0 -107.3,0 -42.9,0 -85.5,0 -128.4,0 -42.8,0 -85.8,0 -128.6,0 -42.9,0 -85.5,0 -128.4,0 -42.8,0 -85.8,0 -128.6,0 -42.9,0 -85.5,0 -128.4,0 C 86,601 43,601 21.5,601 H 0 Z"
         style="fill:#7694b4" />
      <path d="m 0,536 21.5,-1 c 21.5,-1 64.5,-3 107.3,-0.3 42.9,2.6 85.5,10 128.4,13.8 42.8,3.8 85.8,4.2 128.6,2.8 42.9,-1.3 85.5,-4.3 128.4,-8 42.8,-3.6 85.8,-8 128.6,-10.6 42.9,-2.7 85.5,-3.7 128.4,-2.7 42.8,1 85.8,4 107.3,5.5 L 900,537 v 64 h -21.5 c -21.5,0 -64.5,0 -107.3,0 -42.9,0 -85.5,0 -128.4,0 -42.8,0 -85.8,0 -128.6,0 -42.9,0 -85.5,0 -128.4,0 -42.8,0 -85.8,0 -128.6,0 -42.9,0 -85.5,0 -128.4,0 C 86,601 43,601 21.5,601 H 0 Z"
         style="fill:#6a84a4" />
      <path d="m 0,559 21.5,3.3 c 21.5,3.4 64.5,10 107.3,13 42.9,3 85.5,2.4 128.4,-1.1 42.8,-3.5 85.8,-9.9 128.6,-8.9 42.9,1 85.5,9.4 128.4,9.4 42.8,0 85.8,-8.4 128.6,-9.4 42.9,-1 85.5,5.4 128.4,9.5 42.8,4.2 85.8,6.2 107.3,7.2 l 21.5,1 v 18 h -21.5 c -21.5,0 -64.5,0 -107.3,0 -42.9,0 -85.5,0 -128.4,0 -42.8,0 -85.8,0 -128.6,0 -42.9,0 -85.5,0 -128.4,0 -42.8,0 -85.8,0 -128.6,0 -42.9,0 -85.5,0 -128.4,0 C 86,601 43,601 21.5,601 H 0 Z"
         style="fill:#5e7495" />
    </g>
  </g>
</svg>
