<?xml version="1.0" encoding="UTF-8" standalone="no"?>
<svg xmlns:svg="http://www.w3.org/2000/svg" xmlns="http://www.w3.org/2000/svg" width="238" height="23" viewBox="0 0 238 23" version="1.1">
  <g transform="translate(560.5387,367.90019)">
    <g transform="matrix(0.26458333,0,0,0.26458333,-560.5387,-367.90019)">
      <path
         d="m 0,77 21.5,1.7 c 21.5,1.6 64.5,5 107.3,1.5 42.9,-3.5 85.5,-13.9 128.4,-17.2 42.8,-3.3 85.8,0.3 128.6,4.2 42.9,3.8 85.5,7.8 128.4,9.6 42.8,1.9 85.8,1.5 128.6,4.2 42.9,2.7 85.5,8.3 128.4,5.3 C 814,83.3 857,71.7 878.5,65.8 L 900,60 V 0 H 878.5 C 857,0 814,0 771.2,0 728.3,0 685.7,0 642.8,0 600,0 557,0 514.2,0 471.3,0 428.7,0 385.8,0 343,0 300,0 257.2,0 214.3,0 171.7,0 128.8,0 86,0 43,0 21.5,0 H 0 Z"
         style="fill:#7694b4" />
      <path
         d="m 0,62 21.5,1 c 21.5,1 64.5,3 107.3,0.3 42.9,-2.6 85.5,-10 128.4,-13.8 42.8,-3.8 85.8,-4.2 128.6,-2.8 42.9,1.3 85.5,4.3 128.4,8 42.8,3.6 85.8,8 128.6,10.6 C 685.7,68 728.3,69 771.2,68 814,67 857,64 878.5,62.5 L 900,61 V 0 H 878.5 C 857,0 814,0 771.2,0 728.3,0 685.7,0 642.8,0 600,0 557,0 514.2,0 471.3,0 428.7,0 385.8,0 343,0 300,0 257.2,0 214.3,0 171.7,0 128.8,0 86,0 43,0 21.5,0 H 0 Z"
         style="fill:#6a84a4" />
      <path
         d="m 0,39 21.5,-3.3 c 21.5,-3.4 64.5,-10 107.3,-13 42.9,-3 85.5,-2.4 128.4,1.1 42.8,3.5 85.8,9.9 128.6,8.9 42.9,-1 85.5,-9.4 128.4,-9.4 42.8,0 85.8,8.4 128.6,9.4 42.9,1 85.5,-5.4 128.4,-9.5 C 814,19 857,17 878.5,16 L 900,15 V 0 H 878.5 C 857,0 814,0 771.2,0 728.3,0 685.7,0 642.8,0 600,0 557,0 514.2,0 471.3,0 428.7,0 385.8,0 343,0 300,0 257.2,0 214.3,0 171.7,0 128.8,0 86,0 43,0 21.5,0 H 0 Z"
         style="fill:#5e7495" />
    </g>
  </g>
</svg>
